<?xml version="1.0" encoding="utf-8"?>
<!-- Generator: Adobe Illustrator 13.0.0, SVG Export Plug-In . SVG Version: 6.00 Build 14948)  -->
<!DOCTYPE svg PUBLIC "-//W3C//DTD SVG 1.1//EN" "http://www.w3.org/Graphics/SVG/1.1/DTD/svg11.dtd">
<svg version="1.1" id="Layer_1" xmlns="http://www.w3.org/2000/svg" xmlns:xlink="http://www.w3.org/1999/xlink" x="0px" y="0px"
	 width="792px" height="612px" viewBox="0 0 792 612" enable-background="new 0 0 792 612" xml:space="preserve">
<path fill="#010101" d="M263.596,275.042h22.269c0.792,0,1.398,0.606,1.398,1.398v5.544c0,0.745-0.606,1.397-1.398,1.397h-22.269
	c-0.792,0-1.397-0.605-1.397-1.397v-5.544C262.199,275.694,262.804,275.042,263.596,275.042 M263.596,286.177h22.269
	c0.792,0,1.398,0.605,1.398,1.397v5.591c0,0.792-0.606,1.397-1.398,1.397h-22.269c-0.792,0-1.397-0.605-1.397-1.397v-5.591
	C262.199,286.829,262.804,286.177,263.596,286.177 M263.596,297.312h22.269c0.792,0,1.398,0.605,1.398,1.397v5.544
	c0,0.792-0.606,1.397-1.398,1.397h-22.269c-0.792,0-1.397-0.605-1.397-1.397v-5.544
	C262.199,297.963,262.804,297.312,263.596,297.312 M270.538,280.633h1.397v-2.795h-1.397V280.633 M270.538,291.767h1.397v-2.795
	h-1.397V291.767 M270.538,302.902h1.397v-2.795h-1.397V302.902 M264.994,277.837v2.795h2.795v-2.795H264.994 M264.994,288.972v2.795
	h2.795v-2.795H264.994 M264.994,300.106v2.795h2.795v-2.795H264.994z"/>
<path fill="#010101" d="M138.367,290.37h22.269c0.792,0,1.397,0.605,1.397,1.397v5.544c0,0.792-0.605,1.397-1.397,1.397h-22.269
	c-0.746,0-1.398-0.605-1.398-1.397v-5.544C136.969,290.975,137.575,290.37,138.367,290.37 M145.309,295.914h1.398v-2.795h-1.398
	V295.914 M139.718,293.165v2.795h2.795v-2.795H139.718 M159.239,281.937l-1.957,1.957c-2.003-2.003-4.798-3.261-7.873-3.261
	c-3.075,0-5.87,1.258-7.874,3.261l-1.957-1.957c2.516-2.516,6.01-4.1,9.831-4.1C153.229,277.837,156.723,279.421,159.239,281.937
	 M155.279,285.851l-1.957,1.957c-1.025-1.025-2.422-1.63-3.96-1.63s-2.935,0.605-3.96,1.63l-1.957-1.957
	c1.491-1.538,3.587-2.469,5.87-2.469C151.691,283.428,153.788,284.36,155.279,285.851z"/>
<path fill="#010101" d="M410.163,279.235c1.537,0,2.795,1.258,2.795,2.795v16.679c0,1.537-1.258,2.795-2.795,2.795h-19.474
	c-1.538,0-2.796-1.258-2.796-2.795V282.03c0-1.537,1.258-2.795,2.796-2.795H410.163 M410.163,298.709v-13.93h-19.474v13.93H410.163z
	"/>
<g>
	<line fill="none" stroke="#000000" x1="171.359" y1="291.068" x2="252.051" y2="291.068"/>
	<polygon points="250.653,293.91 249.814,293.072 251.771,291.068 249.814,289.065 250.653,288.227 253.495,291.068 	"/>
</g>
<g>
	<line fill="none" stroke="#000000" x1="296.767" y1="291.068" x2="377.505" y2="291.068"/>
	<polygon points="376.061,293.91 375.222,293.072 377.225,291.068 375.222,289.065 376.061,288.227 378.902,291.068 	"/>
</g>
<g>
	<line fill="none" stroke="#000000" x1="276.035" y1="344.878" x2="276.035" y2="425.568"/>
	<polygon points="273.24,424.171 274.079,423.332 276.035,425.289 278.039,423.332 278.877,424.171 276.035,427.013 	"/>
</g>
<g>
	<line fill="none" stroke="#000000" x1="276.035" y1="266.47" x2="276.035" y2="185.779"/>
	<polygon points="278.877,187.177 278.039,188.015 276.035,186.059 274.079,188.015 273.24,187.177 276.035,184.381 	"/>
</g>
<g>
	<line fill="none" stroke="#000000" x1="441.75" y1="144.502" x2="522.487" y2="144.502"/>
	<polygon points="521.09,147.297 520.204,146.458 522.207,144.502 520.204,142.499 521.09,141.66 523.885,144.502 	"/>
</g>
<g>
	<line fill="none" stroke="#000000" x1="441.75" y1="231.016" x2="522.487" y2="231.016"/>
	<polygon points="521.09,233.812 520.204,232.973 522.207,231.016 520.204,229.013 521.09,228.174 523.885,231.016 	"/>
</g>
<text transform="matrix(1 0 0 1 204.2744 286.0278)" font-family="'ArialMT'" font-size="12.2186">lan</text>
<text transform="matrix(1 0 0 1 78.9443 286.0278)" font-family="'ArialMT'" font-size="12.2186">vpn</text>
<g>
	<g>
		<g>
			<line fill="none" stroke="#000000" x1="48.425" y1="291.068" x2="129.163" y2="291.068"/>
			<polygon points="128.146,293.101 127.541,292.496 128.968,291.068 127.541,289.642 128.146,289.036 130.179,291.068 			"/>
			<polygon points="49.442,289.036 50.047,289.641 48.62,291.068 50.047,292.495 49.442,293.101 47.41,291.068 			"/>
		</g>
	</g>
</g>
<text transform="matrix(1 0 0 1 251.8286 321.7471)" font-family="'ArialMT'" font-size="12.2186">synology</text>
<text transform="matrix(1 0 0 1 266.2041 336.4102)" font-family="'ArialMT'" font-size="12.2186">nas</text>
<text transform="matrix(1 0 0 1 384.8398 321.7471)" font-family="'ArialMT'" font-size="12.2186">home</text>
<text transform="matrix(1 0 0 1 377.729 336.4102)" font-family="'ArialMT'" font-size="12.2186">assistant</text>
<text transform="matrix(1 0 0 1 425.9463 332.3408)" font-family="'ArialMT'" font-size="7.1234">1</text>
<path fill="#010101" d="M608.676,139.377c-0.793,0-1.398,0.606-1.398,1.398s0.605,1.397,1.398,1.397
	c0.791,0,1.397-0.605,1.397-1.397S609.421,139.377,608.676,139.377 M609.374,126.845c6.243,0,6.43,4.985,3.121,6.616
	c-1.397,0.699-2.003,2.143-2.235,3.448c0.651,0.279,1.258,0.699,1.677,1.258c5.171-2.795,10.669-1.677,10.669,3.308
	c0,6.243-4.985,6.383-6.616,3.122c-0.698-1.398-2.189-2.003-3.447-2.236c-0.279,0.652-0.698,1.258-1.258,1.724
	c2.749,5.125,1.677,10.669-3.308,10.669c-6.243,0-6.383-4.985-3.121-6.616c1.351-0.699,1.956-2.143,2.236-3.401
	c-0.699-0.28-1.258-0.746-1.725-1.258c-5.124,2.749-10.668,1.677-10.668-3.308c0-6.243,4.938-6.429,6.615-3.121
	c0.699,1.397,2.143,1.957,3.447,2.236c0.279-0.652,0.699-1.258,1.258-1.677C603.317,132.342,604.39,126.845,609.374,126.845z"/>
<path fill="#010101" d="M604.669,342.036c2.842,0,5.171,2.329,5.171,5.171s-2.329,5.172-5.171,5.172s-5.172-2.33-5.172-5.172
	S601.78,342.036,604.669,342.036 M604.669,354.987c3.447,0,10.343,1.724,10.343,5.171v2.609h-20.686v-2.609
	C594.326,356.711,601.221,354.987,604.669,354.987 M614.686,342.502c2.608,2.842,2.608,6.802,0,9.41l-2.19-2.189
	c1.072-1.537,1.072-3.494,0-5.031L614.686,342.502 M618.972,338.169c5.078,5.218,5.031,13.091,0,18.123l-2.097-2.097
	c3.587-4.1,3.587-9.97,0-13.883L618.972,338.169z"/>
<path fill="#010101" d="M618.272,446.906h-2.795v-12.532h-13.931v12.532h-2.795v-15.328l9.737-5.544l9.736,5.544L618.272,446.906
	 M602.991,435.771h11.135v2.795h-11.135V435.771 M602.991,439.965h11.135v2.795h-11.135V439.965 M614.126,444.157v2.796h-11.135
	v-2.796H614.126z"/>
<text transform="matrix(1 0 0 1 590.7686 468.793)" font-family="'ArialMT'" font-size="12.2186">garage</text>
<text transform="matrix(1 0 0 1 589.4863 483.4551)" font-family="'ArialMT'" font-size="12.2186">sensors</text>
<text transform="matrix(1 0 0 1 593.0811 175.2437)" font-family="'ArialMT'" font-size="12.2186">house</text>
<text transform="matrix(1 0 0 1 600.5527 189.9072)" font-family="'ArialMT'" font-size="12.2186">fan</text>
<text transform="matrix(1 0 0 1 588.2021 383.9043)" font-family="'ArialMT'" font-size="12.2186">amazon</text>
<text transform="matrix(1 0 0 1 595.3232 398.5684)" font-family="'ArialMT'" font-size="12.2186">alexa</text>
<text transform="matrix(1 0 0 1 133.9395 321.7471)" font-family="'ArialMT'" font-size="12.2186">router</text>
<text transform="matrix(1 0 0 1 165.8584 317.6777)" font-family="'ArialMT'" font-size="7.1234">2</text>
<text transform="matrix(1 0 0 1 5.9116 321.7471)" font-family="'ArialMT'" font-size="12.2186">internet</text>
<text transform="matrix(1 0 0 1 469.0879 134.3398)" font-family="'ArialMT'" font-size="12.2186">zwave</text>
<text transform="matrix(1 0 0 1 503.7227 130.271)" font-family="'ArialMT'" font-size="7.1234">3</text>
<text transform="matrix(1 0 0 1 325.2891 285.5635)" font-family="'ArialMT'" font-size="12.2186">docker</text>
<text transform="matrix(1 0 0 1 264.6504 175.1621)" font-family="'ArialMT'" font-size="12.2186">plex</text>
<text transform="matrix(1 0 0 1 287.0649 171.0928)" font-family="'ArialMT'" font-size="7.1234">7</text>
<text transform="matrix(1 0 0 1 242.208 469.293)" font-family="'ArialMT'" font-size="12.2186">ip cameras</text>
<text transform="matrix(1 0 0 1 301.4111 463.8857)" font-family="'ArialMT'" font-size="7.1234">8</text>
<text transform="matrix(-4.371139e-08 -1 1 -4.371139e-08 436.3271 231.4507)" font-family="'ArialMT'" font-size="12.2186">output</text>
<text transform="matrix(1 0 0 1 478.3672 243.3521)" font-family="'ArialMT'" font-size="12.2186">http</text>
<text transform="matrix(1 0 0 1 498.748 239.2832)" font-family="'ArialMT'" font-size="7.1234">4</text>
<g>
	<line fill="none" stroke="#000000" x1="441.75" y1="351.354" x2="522.487" y2="351.354"/>
</g>
<text transform="matrix(1 0 0 1 478.3672 363.7266)" font-family="'ArialMT'" font-size="12.2186">http</text>
<text transform="matrix(1 0 0 1 498.748 359.6582)" font-family="'ArialMT'" font-size="7.1234">5</text>
<path fill="#010101" d="M35.36,298.709H17.284c-3.075,0-5.544-2.469-5.544-5.544c0-3.075,2.469-5.544,5.544-5.544h0.979
	c0.932-3.215,3.867-5.544,7.361-5.544c4.24,0,7.641,3.447,7.641,7.64v0.699h2.096c2.283,0,4.193,1.864,4.193,4.193
	C39.553,296.938,37.69,298.709,35.36,298.709 M35.873,287.621c-0.932-4.799-5.171-8.386-10.25-8.386c-4.006,0-7.5,2.283-9.271,5.591
	c-4.193,0.466-7.454,4.006-7.454,8.292c0,4.612,3.727,8.339,8.339,8.339h18.076c3.867,0,6.941-3.122,6.941-6.941
	C42.349,290.882,39.46,287.9,35.873,287.621z"/>
<line fill="none" stroke="#000000" x1="421.53" y1="286.41" x2="443.101" y2="286.41"/>
<g>
	<line fill="none" stroke="#000000" x1="421.53" y1="294.33" x2="443.101" y2="294.33"/>
	<polygon points="422.975,291.488 423.813,292.326 421.81,294.33 423.813,296.286 422.975,297.125 420.133,294.33 	"/>
</g>
<line fill="none" stroke="#000000" x1="442.402" y1="286.41" x2="442.402" y2="144.269"/>
<line fill="none" stroke="#000000" x1="441.75" y1="438.101" x2="522.487" y2="438.101"/>
<text transform="matrix(1 0 0 1 476.0469 450.9336)" font-family="'ArialMT'" font-size="12.2186">zwave</text>
<text transform="matrix(1 0 0 1 510.6797 446.8652)" font-family="'ArialMT'" font-size="7.1234">6</text>
<text transform="matrix(-4.371139e-08 -1 1 -4.371139e-08 436.3271 385.9219)" font-family="'ArialMT'" font-size="12.2186">input</text>
<line fill="none" stroke="#000000" x1="442.402" y1="437.915" x2="442.402" y2="294.33"/>
<path fill="#010101" d="M546.666,134.718c4.612,0,8.34,3.727,8.34,8.339c0,3.075-1.678,5.777-4.193,7.221v2.516
	c0,0.792-0.605,1.398-1.397,1.398h-5.544c-0.745,0-1.397-0.606-1.397-1.398v-2.516c-2.47-1.444-4.193-4.146-4.193-7.221
	C538.327,138.492,542.054,134.718,546.666,134.718 M549.462,155.59v1.397c0,0.792-0.605,1.398-1.397,1.398h-2.796
	c-0.745,0-1.397-0.606-1.397-1.398v-1.397H549.462 M557.801,141.707h4.193v2.795h-4.193V141.707 M531.339,141.707h4.193v2.795
	h-4.193V141.707 M548.064,127.777v4.193h-2.796v-4.193H548.064 M536.79,131.271l2.981,2.981l-1.957,1.957l-2.981-2.935
	L536.79,131.271 M553.562,134.206l2.935-2.982l2.004,2.003l-2.981,2.935L553.562,134.206z"/>
<path fill="#010101" d="M552.862,238.936l-2.655-2.655c0.885-0.932,1.444-2.19,1.444-3.541c0-0.932-0.279-1.771-0.699-2.516
	l2.702-2.749c1.118,1.491,1.771,3.261,1.771,5.265C555.425,235.163,554.446,237.352,552.862,238.936 M546.666,223.981
	c1.957,0,3.774,0.605,5.265,1.771l-2.749,2.702c-0.698-0.419-1.584-0.699-2.516-0.699c-2.748,0-5.031,2.236-5.031,5.032
	c0,1.397,0.559,2.609,1.444,3.541l-2.655,2.656c-1.584-1.584-2.562-3.774-2.562-6.196
	C537.908,227.895,541.821,223.981,546.666,223.981 M546.666,220.208c-6.895,0-12.532,5.591-12.532,12.533
	c0,6.941,5.591,12.532,12.532,12.532c6.942,0,12.532-5.591,12.532-12.532C559.198,225.798,553.562,220.208,546.666,220.208z"/>
<path fill="#010101" d="M552.257,358.155h-11.228v-17.47h11.228 M546.666,363.141c-1.024,0-1.863-0.839-1.863-1.863
	c0-1.025,0.839-1.863,1.863-1.863c1.025,0,1.864,0.838,1.864,1.863C548.53,362.302,547.691,363.141,546.666,363.141
	 M551.651,336.958h-9.97c-1.724,0-3.122,1.397-3.122,3.121v21.244c0,1.724,1.398,3.122,3.122,3.122h9.97
	c1.724,0,3.121-1.398,3.121-3.122v-21.244C554.772,338.355,553.375,336.958,551.651,336.958z"/>
<text transform="matrix(1 0 0 1 526.5352 174.6973)" font-family="'ArialMT'" font-size="12.2186">dimmer</text>
<text transform="matrix(1 0 0 1 532.54 189.3604)" font-family="'ArialMT'" font-size="12.2186">lights</text>
<text transform="matrix(1 0 0 1 527.9102 265.1528)" font-family="'ArialMT'" font-size="12.2186">ecobee</text>
<text transform="matrix(1 0 0 1 518.3311 279.8169)" font-family="'ArialMT'" font-size="12.2186">thermostat</text>
<text transform="matrix(1 0 0 1 528.8027 383.9043)" font-family="'ArialMT'" font-size="12.2186">mobile</text>
<text transform="matrix(1 0 0 1 535.627 398.5684)" font-family="'ArialMT'" font-size="12.2186">web</text>
<text transform="matrix(1 0 0 1 529.4805 468.793)" font-family="'ArialMT'" font-size="12.2186">aeotec</text>
<text transform="matrix(1 0 0 1 530.6963 483.457)" font-family="'ArialMT'" font-size="12.2186">z-stick</text>
<path fill="#010101" d="M546.666,421.189c-4.239,0-8.06,1.724-10.809,4.473l1.957,1.956c2.283-2.282,5.404-3.68,8.852-3.68
	c3.494,0,6.616,1.397,8.853,3.68l1.956-1.956C554.727,422.913,550.906,421.189,546.666,421.189 M539.771,429.622l1.956,1.956
	c1.259-1.258,3.028-2.05,4.938-2.05s3.681,0.792,4.938,2.05l1.957-1.956c-1.771-1.771-4.193-2.842-6.896-2.842
	S541.542,427.852,539.771,429.622 M546.666,442.061c-1.537,0-2.795-1.258-2.795-2.795s1.258-2.795,2.795-2.795
	c1.538,0,2.796,1.258,2.796,2.795S548.204,442.061,546.666,442.061 M550.859,433.722h-8.34c-0.791,0-1.397,0.605-1.397,1.397v16.679
	c0,0.792,0.606,1.397,1.397,1.397h8.34c0.792,0,1.397-0.605,1.397-1.397v-16.679C552.21,434.327,551.604,433.722,550.859,433.722z"
	/>
<path fill="#010101" d="M675.25,360.346l-2.655-2.656c0.885-0.932,1.444-2.189,1.444-3.541c0-0.932-0.28-1.77-0.699-2.516
	l2.702-2.748c1.118,1.49,1.771,3.261,1.771,5.264C677.812,356.571,676.834,358.762,675.25,360.346 M669.054,345.391
	c1.957,0,3.773,0.605,5.265,1.77l-2.749,2.703c-0.698-0.42-1.584-0.699-2.516-0.699c-2.749,0-5.031,2.236-5.031,5.031
	c0,1.398,0.559,2.609,1.444,3.541l-2.656,2.655c-1.584-1.584-2.562-3.773-2.562-6.196
	C660.295,349.304,664.208,345.391,669.054,345.391 M669.054,341.617c-6.896,0-12.532,5.59-12.532,12.531
	c0,6.942,5.591,12.533,12.532,12.533s12.532-5.591,12.532-12.533C681.586,347.207,675.949,341.617,669.054,341.617z"/>
<text transform="matrix(1 0 0 1 650.293 383.9043)" font-family="'ArialMT'" font-size="12.2186">ecobee</text>
<text transform="matrix(1 0 0 1 640.7119 398.5664)" font-family="'ArialMT'" font-size="12.2186">thermostat</text>
<path fill="#010101" d="M620.416,240.986h-22.27v-16.679h22.27 M620.416,221.466h-22.27c-1.537,0-2.796,1.258-2.796,2.795v16.726
	c0,1.537,1.259,2.795,2.796,2.795h5.544v2.795h11.135v-2.795h5.544c1.537,0,2.795-1.258,2.795-2.795v-16.679
	C623.164,222.724,621.953,221.466,620.416,221.466z"/>
<text transform="matrix(1 0 0 1 586.1953 265.1528)" font-family="'ArialMT'" font-size="12.2186">harmony</text>
<text transform="matrix(1 0 0 1 599.0137 279.8169)" font-family="'ArialMT'" font-size="12.2186">hub</text>
<text transform="matrix(1 0 0 1 710.6494 383.9043)" font-family="'ArialMT'" font-size="12.2186">alarm</text>
<path fill="#010101" d="M723.842,353.311h2.469v3.68h3.681v-6.103h2.469l-7.314-6.103l-7.313,6.103h2.469v6.103h3.681
	L723.842,353.311 M725.053,338.635l10.995,4.893v7.314c0,6.801-4.706,13.137-10.995,14.675c-6.289-1.538-10.995-7.874-10.995-14.675
	v-7.314L725.053,338.635z"/>
<text transform="matrix(1 0 0 1 759.5605 383.9043)" font-family="'ArialMT'" font-size="12.2186">dark</text>
<text transform="matrix(1 0 0 1 762.6523 398.5684)" font-family="'ArialMT'" font-size="12.2186">sky</text>
<path fill="#010101" d="M771.314,361.277c-4.053,0-7.36-3.309-7.36-7.361s3.308-7.361,7.36-7.361c4.054,0,7.361,3.309,7.361,7.361
	S775.368,361.277,771.314,361.277 M781.145,357.969l4.054-4.053l-4.054-4.053v-5.777h-5.776l-4.054-4.053l-4.053,4.053h-5.777v5.777
	l-4.053,4.053l4.053,4.053v5.777h5.777l4.053,4.053l4.054-4.053h5.776V357.969z"/>
<path fill="#010101" d="M283.769,136.116l2.795,5.544h-4.193l-2.795-5.544h-2.795l2.795,5.544h-4.193l-2.795-5.544h-2.795
	l2.795,5.544h-4.193l-2.795-5.544h-1.398c-1.537,0-2.795,1.258-2.795,2.795v16.679c0,1.538,1.258,2.795,2.795,2.795h22.27
	c1.537,0,2.795-1.258,2.795-2.795v-19.474C289.267,136.116,283.769,136.116,283.769,136.116z"/>
<path d="M268.086,435.5h3l2-2h6l2,2h3c1.104,0,2,0.896,2,2v12c0,1.104-0.896,2-2,2h-16c-1.104,0-2-0.896-2-2v-12
	C266.086,436.396,266.981,435.5,268.086,435.5 M276.086,438.5c-2.761,0-5,2.238-5,5s2.239,5,5,5c2.762,0,5-2.238,5-5
	S278.848,438.5,276.086,438.5 M276.086,440.5c1.656,0,3,1.344,3,3s-1.344,3-3,3s-3-1.344-3-3S274.43,440.5,276.086,440.5z"/>
</svg>
