<?xml version="1.0" encoding="utf-8"?>
<!-- Generator: Adobe Illustrator 19.2.1, SVG Export Plug-In . SVG Version: 6.00 Build 0)  -->
<svg version="1.1" id="Layer_1" xmlns="http://www.w3.org/2000/svg" xmlns:xlink="http://www.w3.org/1999/xlink" x="0px" y="0px"
	 viewBox="0 0 1700 797.7" style="enable-background:new 0 0 1700 797.7;" xml:space="preserve">
<style type="text/css">
	.st0{fill:#010101;}
	.st1{fill:none;stroke:#000000;}
	.st2{font-family:'ArialMT';}
	.st3{font-size:26.2268px;}
	.st4{font-size:15.2902px;}
</style>
<path class="st0" d="M565.8,332.4h47.8c1.7,0,3,1.3,3,3v11.9c0,1.6-1.3,3-3,3h-47.8c-1.7,0-3-1.3-3-3v-11.9
	C562.8,333.8,564.1,332.4,565.8,332.4 M565.8,356.3h47.8c1.7,0,3,1.3,3,3v12c0,1.7-1.3,3-3,3h-47.8c-1.7,0-3-1.3-3-3v-12
	C562.8,357.7,564.1,356.3,565.8,356.3 M565.8,380.2h47.8c1.7,0,3,1.3,3,3v11.9c0,1.7-1.3,3-3,3h-47.8c-1.7,0-3-1.3-3-3v-11.9
	C562.8,381.6,564.1,380.2,565.8,380.2 M580.7,344.4h3v-6h-3V344.4 M580.7,368.3h3v-6h-3V368.3 M580.7,392.2h3v-6h-3V392.2
	 M568.8,338.4v6h6v-6H568.8 M568.8,362.3v6h6v-6H568.8 M568.8,386.2v6h6v-6H568.8z"/>
<path class="st0" d="M297,365.3h47.8c1.7,0,3,1.3,3,3v11.9c0,1.7-1.3,3-3,3H297c-1.6,0-3-1.3-3-3v-11.9
	C294,366.6,295.3,365.3,297,365.3 M311.9,377.2h3v-6h-3V377.2 M299.9,371.3v6h6v-6H299.9 M341.8,347.2l-4.2,4.2
	c-4.3-4.3-10.3-7-16.9-7s-12.6,2.7-16.9,7l-4.2-4.2c5.4-5.4,12.9-8.8,21.1-8.8S336.4,341.8,341.8,347.2 M333.3,355.6l-4.2,4.2
	c-2.2-2.2-5.2-3.5-8.5-3.5s-6.3,1.3-8.5,3.5l-4.2-4.2c3.2-3.3,7.7-5.3,12.6-5.3C325.6,350.4,330.1,352.4,333.3,355.6z"/>
<path class="st0" d="M880.4,341.4c3.3,0,6,2.7,6,6v35.8c0,3.3-2.7,6-6,6h-41.8c-3.3,0-6-2.7-6-6v-35.8c0-3.3,2.7-6,6-6H880.4
	 M880.4,383.2v-29.9h-41.8v29.9H880.4z"/>
<g>
	<line class="st1" x1="366.2" y1="366.8" x2="539.4" y2="366.8"/>
	<polygon points="536.4,372.9 534.6,371.1 538.8,366.8 534.6,362.5 536.4,360.7 542.5,366.8 	"/>
</g>
<g>
	<line class="st1" x1="637" y1="366.8" x2="810.3" y2="366.8"/>
	<polygon points="807.2,372.9 805.4,371.1 809.7,366.8 805.4,362.5 807.2,360.7 813.3,366.8 	"/>
</g>
<g>
	<line class="st1" x1="592.5" y1="482.3" x2="592.5" y2="655.5"/>
	<polygon points="586.5,652.5 588.3,650.7 592.5,654.9 596.8,650.7 598.6,652.5 592.5,658.6 	"/>
</g>
<g>
	<line class="st1" x1="592.5" y1="314" x2="592.5" y2="140.8"/>
	<polygon points="598.6,143.8 596.8,145.6 592.5,141.4 588.3,145.6 586.5,143.8 592.5,137.8 	"/>
</g>
<g>
	<line class="st1" x1="948.2" y1="52.2" x2="1121.5" y2="52.2"/>
	<polygon points="1118.5,58.2 1116.6,56.4 1120.9,52.2 1116.6,47.9 1118.5,46.1 1124.5,52.2 	"/>
</g>
<g>
	<line class="st1" x1="948.2" y1="237.9" x2="1121.5" y2="237.9"/>
	<polygon points="1118.5,243.9 1116.6,242.1 1120.9,237.9 1116.6,233.6 1118.5,231.8 1124.5,237.9 	"/>
</g>
<text transform="matrix(1 0 0 1 440.0865 355.9804)" class="st2 st3">lan</text>
<g>
	<line class="st1" x1="104.3" y1="366.8" x2="277.6" y2="366.8"/>
	<polygon points="274.5,372.9 272.7,371.1 277,366.8 272.7,362.5 274.5,360.7 280.6,366.8 	"/>
</g>
<text transform="matrix(1 0 0 1 540.5406 432.6503)" class="st2 st3">synology</text>
<text transform="matrix(1 0 0 1 571.3971 464.123)" class="st2 st3">nas</text>
<text transform="matrix(1 0 0 1 826.0455 432.6503)" class="st2 st3">home</text>
<text transform="matrix(1 0 0 1 810.7809 464.123)" class="st2 st3">assistant</text>
<text transform="matrix(1 0 0 1 914.2793 455.3894)" class="st2 st4">1</text>
<path class="st0" d="M1306.5,41.2c-1.7,0-3,1.3-3,3s1.3,3,3,3s3-1.3,3-3S1308.1,41.2,1306.5,41.2 M1308,14.3
	c13.4,0,13.8,10.7,6.7,14.2c-3,1.5-4.3,4.6-4.8,7.4c1.4,0.6,2.7,1.5,3.6,2.7c11.1-6,22.9-3.6,22.9,7.1c0,13.4-10.7,13.7-14.2,6.7
	c-1.5-3-4.7-4.3-7.4-4.8c-0.6,1.4-1.5,2.7-2.7,3.7c5.9,11,3.6,22.9-7.1,22.9c-13.4,0-13.7-10.7-6.7-14.2c2.9-1.5,4.2-4.6,4.8-7.3
	c-1.5-0.6-2.7-1.6-3.7-2.7c-11,5.9-22.9,3.6-22.9-7.1c0-13.4,10.6-13.8,14.2-6.7c1.5,3,4.6,4.2,7.4,4.8c0.6-1.4,1.5-2.7,2.7-3.6
	C1295,26.1,1297.3,14.3,1308,14.3z"/>
<path class="st0" d="M1297.9,476.2c6.1,0,11.1,5,11.1,11.1s-5,11.1-11.1,11.1s-11.1-5-11.1-11.1S1291.7,476.2,1297.9,476.2
	 M1297.9,504c7.4,0,22.2,3.7,22.2,11.1v5.6h-44.4v-5.6C1275.7,507.7,1290.5,504,1297.9,504 M1319.4,477.2c5.6,6.1,5.6,14.6,0,20.2
	l-4.7-4.7c2.3-3.3,2.3-7.5,0-10.8L1319.4,477.2 M1328.6,467.9c10.9,11.2,10.8,28.1,0,38.9l-4.5-4.5c7.7-8.8,7.7-21.4,0-29.8
	L1328.6,467.9z"/>
<path class="st0" d="M1327.1,701.3h-6v-26.9h-29.9v26.9h-6v-32.9l20.9-11.9l20.9,11.9L1327.1,701.3 M1294.3,677.4h23.9v6h-23.9
	V677.4 M1294.3,686.4h23.9v6h-23.9V686.4 M1318.2,695.4v6h-23.9v-6H1318.2z"/>
<text transform="matrix(1 0 0 1 1268.0641 748.2792)" class="st2 st3">garage</text>
<text transform="matrix(1 0 0 1 1265.3102 779.7519)" class="st2 st3">sensors</text>
<text transform="matrix(1 0 0 1 1273.028 118.1859)" class="st2 st3">house</text>
<text transform="matrix(1 0 0 1 1289.0651 149.6615)" class="st2 st3">fan</text>
<text transform="matrix(1 0 0 1 1262.5543 566.0702)" class="st2 st3">amazon</text>
<text transform="matrix(1 0 0 1 1277.8414 597.5448)" class="st2 st3">alexa</text>
<text transform="matrix(1 0 0 1 287.4967 432.6503)" class="st2 st3">router</text>
<text transform="matrix(1 0 0 1 356.0088 423.9168)" class="st2 st4">2</text>
<text transform="matrix(1 0 0 1 12.6881 432.6503)" class="st2 st3">internet</text>
<text transform="matrix(1 0 0 1 1006.8824 30.3871)" class="st2 st3">zwave</text>
<text transform="matrix(1 0 0 1 1081.2217 21.6541)" class="st2 st4">3</text>
<text transform="matrix(1 0 0 1 698.2213 354.9843)" class="st2 st3">docker</text>
<text transform="matrix(1 0 0 1 568.0631 118.0102)" class="st2 st3">plex</text>
<text transform="matrix(1 0 0 1 542.0778 755.2558)" class="st2 st3">channels</text>
<text transform="matrix(1 0 0 1 572.9733 786.7264)" class="st2 st3">dvr</text>
<text transform="matrix(-4.371139e-08 -1 1 -4.371139e-08 936.5615 238.8324)" class="st2 st3">output</text>
<text transform="matrix(1 0 0 1 1026.7994 264.3783)" class="st2 st3">http</text>
<text transform="matrix(1 0 0 1 1070.5449 255.6453)" class="st2 st4">4</text>
<g>
	<line class="st1" x1="948.2" y1="496.2" x2="1121.5" y2="496.2"/>
</g>
<text transform="matrix(1 0 0 1 1026.7994 522.7596)" class="st2 st3">http</text>
<text transform="matrix(1 0 0 1 1070.5449 514.0261)" class="st2 st4">5</text>
<path class="st0" d="M75.9,383.2H37.1c-6.6,0-11.9-5.3-11.9-11.9s5.3-11.9,11.9-11.9h2.1c2-6.9,8.3-11.9,15.8-11.9
	c9.1,0,16.4,7.4,16.4,16.4v1.5h4.5c4.9,0,9,4,9,9S80.9,383.2,75.9,383.2 M77,359.4c-2-10.3-11.1-18-22-18c-8.6,0-16.1,4.9-19.9,12
	c-9,1-16,8.6-16,17.8c0,9.9,8,17.9,17.9,17.9h38.8c8.3,0,14.9-6.7,14.9-14.9C90.9,366.4,84.7,360,77,359.4z"/>
<line class="st1" x1="904.8" y1="356.8" x2="951.1" y2="356.8"/>
<g>
	<line class="st1" x1="904.8" y1="373.8" x2="951.1" y2="373.8"/>
	<polygon points="907.9,367.7 909.7,369.5 905.4,373.8 909.7,378 907.9,379.8 901.8,373.8 	"/>
</g>
<line class="st1" x1="949.6" y1="356.8" x2="949.6" y2="51.7"/>
<line class="st1" x1="948.2" y1="682.4" x2="1121.5" y2="682.4"/>
<text transform="matrix(1 0 0 1 1021.818 709.9452)" class="st2 st3">zwave</text>
<text transform="matrix(1 0 0 1 1096.1572 701.2117)" class="st2 st4">6</text>
<text transform="matrix(-4.371139e-08 -1 1 -4.371139e-08 936.5615 570.3998)" class="st2 st3">input</text>
<line class="st1" x1="949.6" y1="682" x2="949.6" y2="373.8"/>
<path class="st0" d="M1173.4,31.2c9.9,0,17.9,8,17.9,17.9c0,6.6-3.6,12.4-9,15.5V70c0,1.7-1.3,3-3,3h-11.9c-1.6,0-3-1.3-3-3v-5.4
	c-5.3-3.1-9-8.9-9-15.5C1155.5,39.3,1163.5,31.2,1173.4,31.2 M1179.4,76v3c0,1.7-1.3,3-3,3h-6c-1.6,0-3-1.3-3-3v-3H1179.4
	 M1197.3,46.2h9v6h-9V46.2 M1140.5,46.2h9v6h-9V46.2 M1176.4,16.3v9h-6v-9H1176.4 M1152.2,23.8l6.4,6.4l-4.2,4.2l-6.4-6.3
	L1152.2,23.8 M1188.2,30.1l6.3-6.4l4.3,4.3l-6.4,6.3L1188.2,30.1z"/>
<path class="st0" d="M1186.7,254.9l-5.7-5.7c1.9-2,3.1-4.7,3.1-7.6c0-2-0.6-3.8-1.5-5.4l5.8-5.9c2.4,3.2,3.8,7,3.8,11.3
	C1192.2,246.8,1190.1,251.5,1186.7,254.9 M1173.4,222.8c4.2,0,8.1,1.3,11.3,3.8l-5.9,5.8c-1.5-0.9-3.4-1.5-5.4-1.5
	c-5.9,0-10.8,4.8-10.8,10.8c0,3,1.2,5.6,3.1,7.6l-5.7,5.7c-3.4-3.4-5.5-8.1-5.5-13.3C1154.6,231.2,1163,222.8,1173.4,222.8
	 M1173.4,214.7c-14.8,0-26.9,12-26.9,26.9s12,26.9,26.9,26.9s26.9-12,26.9-26.9S1188.2,214.7,1173.4,214.7z"/>
<path class="st0" d="M1185.4,510.8h-24.1v-37.5h24.1 M1173.4,521.5c-2.2,0-4-1.8-4-4s1.8-4,4-4s4,1.8,4,4S1175.6,521.5,1173.4,521.5
	 M1184.1,465.3h-21.4c-3.7,0-6.7,3-6.7,6.7v45.6c0,3.7,3,6.7,6.7,6.7h21.4c3.7,0,6.7-3,6.7-6.7V472
	C1190.8,468.3,1187.8,465.3,1184.1,465.3z"/>
<text transform="matrix(1 0 0 1 1130.1891 117.0131)" class="st2 st3">dimmer</text>
<text transform="matrix(1 0 0 1 1143.0787 148.4877)" class="st2 st3">lights</text>
<text transform="matrix(1 0 0 1 1133.1383 311.1732)" class="st2 st3">ecobee</text>
<text transform="matrix(1 0 0 1 1112.5787 342.6488)" class="st2 st3">thermostat</text>
<text transform="matrix(1 0 0 1 1135.0582 566.0702)" class="st2 st3">mobile</text>
<text transform="matrix(1 0 0 1 1149.7037 597.5448)" class="st2 st3">web</text>
<text transform="matrix(1 0 0 1 1136.5104 748.2812)" class="st2 st3">aeotec</text>
<text transform="matrix(1 0 0 1 1139.1217 779.7577)" class="st2 st3">z-stick</text>
<path class="st0" d="M1173.4,646.1c-9.1,0-17.3,3.7-23.2,9.6l4.2,4.2c4.9-4.9,11.6-7.9,19-7.9c7.5,0,14.2,3,19,7.9l4.2-4.2
	C1190.7,649.8,1182.5,646.1,1173.4,646.1 M1158.6,664.2l4.2,4.2c2.7-2.7,6.5-4.4,10.6-4.4s7.9,1.7,10.6,4.4l4.2-4.2
	c-3.8-3.8-9-6.1-14.8-6.1S1162.4,660.4,1158.6,664.2 M1173.4,690.9c-3.3,0-6-2.7-6-6s2.7-6,6-6s6,2.7,6,6S1176.7,690.9,1173.4,690.9
	 M1182.4,673h-17.9c-1.7,0-3,1.3-3,3v35.8c0,1.7,1.3,3,3,3h17.9c1.7,0,3-1.3,3-3V676C1185.3,674.3,1184,673,1182.4,673z"/>
<path class="st0" d="M1449.4,515.5l-5.7-5.7c1.9-2,3.1-4.7,3.1-7.6c0-2-0.6-3.8-1.5-5.4l5.8-5.9c2.4,3.2,3.8,7,3.8,11.3
	C1454.9,507.4,1452.8,512.1,1449.4,515.5 M1436.1,483.4c4.2,0,8.1,1.3,11.3,3.8l-5.9,5.8c-1.5-0.9-3.4-1.5-5.4-1.5
	c-5.9,0-10.8,4.8-10.8,10.8c0,3,1.2,5.6,3.1,7.6l-5.7,5.7c-3.4-3.4-5.5-8.1-5.5-13.3C1417.3,491.8,1425.7,483.4,1436.1,483.4
	 M1436.1,475.3c-14.8,0-26.9,12-26.9,26.9c0,14.9,12,26.9,26.9,26.9s26.9-12,26.9-26.9C1463,487.3,1450.9,475.3,1436.1,475.3z"/>
<text transform="matrix(1 0 0 1 1395.8317 566.0702)" class="st2 st3">ecobee</text>
<text transform="matrix(1 0 0 1 1375.2662 597.5409)" class="st2 st3">thermostat</text>
<path class="st0" d="M1331.7,259.3h-47.8v-35.8h47.8 M1331.7,217.4h-47.8c-3.3,0-6,2.7-6,6v35.9c0,3.3,2.7,6,6,6h11.9v6h23.9v-6
	h11.9c3.3,0,6-2.7,6-6v-35.8C1337.6,220.1,1335,217.4,1331.7,217.4z"/>
<text transform="matrix(1 0 0 1 1258.2474 311.1732)" class="st2 st3">harmony</text>
<text transform="matrix(1 0 0 1 1285.7621 342.6488)" class="st2 st3">hub</text>
<text transform="matrix(1 0 0 1 1525.3844 566.0702)" class="st2 st3">alarm</text>
<path class="st0" d="M1553.7,500.4h5.3v7.9h7.9v-13.1h5.3l-15.7-13.1l-15.7,13.1h5.3v13.1h7.9L1553.7,500.4 M1556.3,468.9l23.6,10.5
	v15.7c0,14.6-10.1,28.2-23.6,31.5c-13.5-3.3-23.6-16.9-23.6-31.5v-15.7L1556.3,468.9z"/>
<text transform="matrix(1 0 0 1 1630.3688 566.0702)" class="st2 st3">dark</text>
<text transform="matrix(1 0 0 1 1637.0065 597.5448)" class="st2 st3">sky</text>
<path class="st0" d="M1655.6,517.5c-8.7,0-15.8-7.1-15.8-15.8s7.1-15.8,15.8-15.8c8.7,0,15.8,7.1,15.8,15.8
	S1664.3,517.5,1655.6,517.5 M1676.7,510.4l8.7-8.7l-8.7-8.7v-12.4h-12.4l-8.7-8.7l-8.7,8.7h-12.4V493l-8.7,8.7l8.7,8.7v12.4h12.4
	l8.7,8.7l8.7-8.7h12.4V510.4z"/>
<path class="st0" d="M609.1,34.2l6,11.9h-9l-6-11.9h-6l6,11.9h-9l-6-11.9h-6l6,11.9h-9l-6-11.9h-3c-3.3,0-6,2.7-6,6V76
	c0,3.3,2.7,6,6,6h47.8c3.3,0,6-2.7,6-6V34.2C620.9,34.2,609.1,34.2,609.1,34.2z"/>
<path class="st0" d="M592.7,670.5c-12.4,0-22.4,10-22.4,22.4s10,22.4,22.4,22.4s22.4-10,22.4-22.4
	C615.1,680.5,605,670.5,592.7,670.5 M576.2,685.4h6c1.6,0,3,1.3,3,3v3c0,1.5-1.1,2.7-2.6,2.9l3.5,6.1h-3.5l-3.4-6v6h-3 M591.2,685.4
	h6v3h-6v3h6v3h-6v3h6v3h-6c-1.6,0-3-1.3-3-3v-9C588.2,686.8,589.5,685.4,591.2,685.4 M603.1,685.4h6v3h-6v9h6v3h-6c-1.7,0-3-1.3-3-3
	v-9C600.1,686.8,601.5,685.4,603.1,685.4 M579.2,688.4v3h3v-3"/>
</svg>
