<?xml version="1.0" encoding="utf-8"?>
<!-- Generator: Adobe Illustrator 19.2.1, SVG Export Plug-In . SVG Version: 6.00 Build 0)  -->
<svg version="1.1" id="Layer_1" xmlns="http://www.w3.org/2000/svg" xmlns:xlink="http://www.w3.org/1999/xlink" x="0px" y="0px"
	 viewBox="0 0 1700 928.8" style="enable-background:new 0 0 1700 928.8;" xml:space="preserve">
<style type="text/css">
	.st0{fill:#010101;}
	.st1{fill:none;stroke:#000000;}
	.st2{font-family:'ArialMT';}
	.st3{font-size:26.2268px;}
</style>
<path class="st0" d="M565.8,403.1h47.8c1.7,0,3,1.3,3,3V418c0,1.6-1.3,3-3,3h-47.8c-1.7,0-3-1.3-3-3v-11.9
	C562.8,404.5,564.1,403.1,565.8,403.1 M565.8,427h47.8c1.7,0,3,1.3,3,3v12c0,1.7-1.3,3-3,3h-47.8c-1.7,0-3-1.3-3-3v-12
	C562.8,428.4,564.1,427,565.8,427 M565.8,450.9h47.8c1.7,0,3,1.3,3,3v11.9c0,1.7-1.3,3-3,3h-47.8c-1.7,0-3-1.3-3-3v-11.9
	C562.8,452.3,564.1,450.9,565.8,450.9 M580.7,415.1h3v-6h-3V415.1 M580.7,439h3v-6h-3V439 M580.7,462.9h3v-6h-3V462.9 M568.8,409.1
	v6h6v-6H568.8 M568.8,433v6h6v-6H568.8 M568.8,456.9v6h6v-6H568.8z"/>
<path class="st0" d="M297,436h47.8c1.7,0,3,1.3,3,3v11.9c0,1.7-1.3,3-3,3H297c-1.6,0-3-1.3-3-3V439C294,437.3,295.3,436,297,436
	 M311.9,447.9h3v-6h-3V447.9 M299.9,442v6h6v-6H299.9 M341.8,417.9l-4.2,4.2c-4.3-4.3-10.3-7-16.9-7s-12.6,2.7-16.9,7l-4.2-4.2
	c5.4-5.4,12.9-8.8,21.1-8.8S336.4,412.5,341.8,417.9 M333.3,426.3l-4.2,4.2c-2.2-2.2-5.2-3.5-8.5-3.5s-6.3,1.3-8.5,3.5l-4.2-4.2
	c3.2-3.3,7.7-5.3,12.6-5.3C325.6,421.1,330.1,423.1,333.3,426.3z"/>
<path class="st0" d="M880.4,412.1c3.3,0,6,2.7,6,6v35.8c0,3.3-2.7,6-6,6h-41.8c-3.3,0-6-2.7-6-6v-35.8c0-3.3,2.7-6,6-6H880.4
	 M880.4,453.9V424h-41.8v29.9H880.4z"/>
<g>
	<line class="st1" x1="366.2" y1="437.5" x2="539.4" y2="437.5"/>
	<polygon points="536.4,443.6 534.6,441.8 538.8,437.5 534.6,433.2 536.4,431.4 542.5,437.5 	"/>
</g>
<g>
	<line class="st1" x1="637" y1="437.5" x2="810.3" y2="437.5"/>
	<polygon points="807.2,443.6 805.4,441.8 809.7,437.5 805.4,433.2 807.2,431.4 813.3,437.5 	"/>
</g>
<g>
	<line class="st1" x1="592.5" y1="553" x2="592.5" y2="726.2"/>
	<polygon points="586.5,723.2 588.3,721.4 592.5,725.6 596.8,721.4 598.6,723.2 592.5,729.3 	"/>
</g>
<g>
	<line class="st1" x1="592.5" y1="384.7" x2="592.5" y2="211.5"/>
	<polygon points="598.6,214.5 596.8,216.3 592.5,212.1 588.3,216.3 586.5,214.5 592.5,208.5 	"/>
</g>
<g>
	<line class="st1" x1="948.2" y1="122.9" x2="1121.5" y2="122.9"/>
	<polygon points="1118.5,128.9 1116.6,127.1 1120.9,122.9 1116.6,118.6 1118.5,116.8 1124.5,122.9 	"/>
</g>
<g>
	<line class="st1" x1="948.2" y1="308.6" x2="1121.5" y2="308.6"/>
	<polygon points="1118.5,314.6 1116.6,312.8 1120.9,308.6 1116.6,304.3 1118.5,302.5 1124.5,308.6 	"/>
</g>
<text transform="matrix(1 0 0 1 440.0865 426.7062)" class="st2 st3">lan</text>
<g>
	<line class="st1" x1="104.3" y1="437.5" x2="277.6" y2="437.5"/>
	<polygon points="274.5,443.6 272.7,441.8 277,437.5 272.7,433.2 274.5,431.4 280.6,437.5 	"/>
</g>
<text transform="matrix(1 0 0 1 540.5406 503.3761)" class="st2 st3">synology</text>
<text transform="matrix(1 0 0 1 571.3971 534.8488)" class="st2 st3">nas</text>
<text transform="matrix(1 0 0 1 826.0455 503.3761)" class="st2 st3">home</text>
<text transform="matrix(1 0 0 1 810.7809 534.8488)" class="st2 st3">assistant</text>
<text transform="matrix(0.583 0 0 0.583 914.2794 526.1154)" class="st2 st3">1</text>
<path class="st0" d="M1306.5,111.9c-1.7,0-3,1.3-3,3s1.3,3,3,3s3-1.3,3-3S1308.1,111.9,1306.5,111.9 M1308,85
	c13.4,0,13.8,10.7,6.7,14.2c-3,1.5-4.3,4.6-4.8,7.4c1.4,0.6,2.7,1.5,3.6,2.7c11.1-6,22.9-3.6,22.9,7.1c0,13.4-10.7,13.7-14.2,6.7
	c-1.5-3-4.7-4.3-7.4-4.8c-0.6,1.4-1.5,2.7-2.7,3.7c5.9,11,3.6,22.9-7.1,22.9c-13.4,0-13.7-10.7-6.7-14.2c2.9-1.5,4.2-4.6,4.8-7.3
	c-1.5-0.6-2.7-1.6-3.7-2.7c-11,5.9-22.9,3.6-22.9-7.1c0-13.4,10.6-13.8,14.2-6.7c1.5,3,4.6,4.2,7.4,4.8c0.6-1.4,1.5-2.7,2.7-3.6
	C1295,96.8,1297.3,85,1308,85z"/>
<path class="st0" d="M1297.9,546.9c6.1,0,11.1,5,11.1,11.1s-5,11.1-11.1,11.1s-11.1-5-11.1-11.1S1291.7,546.9,1297.9,546.9
	 M1297.9,574.7c7.4,0,22.2,3.7,22.2,11.1v5.6h-44.4v-5.6C1275.7,578.4,1290.5,574.7,1297.9,574.7 M1319.4,547.9
	c5.6,6.1,5.6,14.6,0,20.2l-4.7-4.7c2.3-3.3,2.3-7.5,0-10.8L1319.4,547.9 M1328.6,538.6c10.9,11.2,10.8,28.1,0,38.9l-4.5-4.5
	c7.7-8.8,7.7-21.4,0-29.8L1328.6,538.6z"/>
<path class="st0" d="M1327.1,772h-6v-26.9h-29.9V772h-6v-32.9l20.9-11.9l20.9,11.9L1327.1,772 M1294.3,748.1h23.9v6h-23.9V748.1
	 M1294.3,757.1h23.9v6h-23.9V757.1 M1318.2,766.1v6h-23.9v-6H1318.2z"/>
<text transform="matrix(1 0 0 1 1268.0641 819.005)" class="st2 st3">garage</text>
<text transform="matrix(1 0 0 1 1265.3102 850.4777)" class="st2 st3">sensors</text>
<text transform="matrix(1 0 0 1 1273.028 188.9117)" class="st2 st3">house</text>
<text transform="matrix(1 0 0 1 1289.0651 220.3873)" class="st2 st3">fan</text>
<text transform="matrix(1 0 0 1 1262.5543 636.796)" class="st2 st3">amazon</text>
<text transform="matrix(1 0 0 1 1277.8414 668.2706)" class="st2 st3">alexa</text>
<text transform="matrix(1 0 0 1 287.4967 503.3761)" class="st2 st3">router</text>
<text transform="matrix(0.583 0 0 0.583 356.0089 494.6427)" class="st2 st3">2</text>
<text transform="matrix(1 0 0 1 12.6881 503.3761)" class="st2 st3">internet</text>
<text transform="matrix(1 0 0 1 1006.8824 101.1129)" class="st2 st3">zwave</text>
<text transform="matrix(0.583 0 0 0.583 1081.2217 92.3795)" class="st2 st3">3</text>
<text transform="matrix(1 0 0 1 698.2213 425.7101)" class="st2 st3">docker</text>
<text transform="matrix(1 0 0 1 568.0631 188.736)" class="st2 st3">plex</text>
<text transform="matrix(1 0 0 1 542.0778 825.9816)" class="st2 st3">channels</text>
<text transform="matrix(1 0 0 1 572.9733 857.4523)" class="st2 st3">dvr</text>
<text transform="matrix(-4.371139e-08 -1 1 -4.371139e-08 936.5615 309.5582)" class="st2 st3">output</text>
<text transform="matrix(1 0 0 1 1026.7994 335.1041)" class="st2 st3">http</text>
<text transform="matrix(0.583 0 0 0.583 1070.545 326.3707)" class="st2 st3">4</text>
<g>
	<line class="st1" x1="948.2" y1="566.9" x2="1121.5" y2="566.9"/>
</g>
<text transform="matrix(1 0 0 1 1026.7994 593.4855)" class="st2 st3">http</text>
<text transform="matrix(0.583 0 0 0.583 1070.545 584.7521)" class="st2 st3">5</text>
<path class="st0" d="M75.9,453.9H37.1c-6.6,0-11.9-5.3-11.9-11.9s5.3-11.9,11.9-11.9h2.1c2-6.9,8.3-11.9,15.8-11.9
	c9.1,0,16.4,7.4,16.4,16.4v1.5h4.5c4.9,0,9,4,9,9S80.9,453.9,75.9,453.9 M77,430.1c-2-10.3-11.1-18-22-18c-8.6,0-16.1,4.9-19.9,12
	c-9,1-16,8.6-16,17.8c0,9.9,8,17.9,17.9,17.9h38.8c8.3,0,14.9-6.7,14.9-14.9C90.9,437.1,84.7,430.7,77,430.1z"/>
<line class="st1" x1="904.8" y1="427.5" x2="951.1" y2="427.5"/>
<g>
	<line class="st1" x1="904.8" y1="444.5" x2="951.1" y2="444.5"/>
	<polygon points="907.9,438.4 909.7,440.2 905.4,444.5 909.7,448.7 907.9,450.5 901.8,444.5 	"/>
</g>
<line class="st1" x1="949.6" y1="427.5" x2="949.6" y2="122.4"/>
<line class="st1" x1="948.2" y1="753.1" x2="1121.5" y2="753.1"/>
<text transform="matrix(1 0 0 1 1021.818 780.671)" class="st2 st3">zwave</text>
<text transform="matrix(0.583 0 0 0.583 1096.1573 771.9376)" class="st2 st3">6</text>
<text transform="matrix(-4.371139e-08 -1 1 -4.371139e-08 936.5615 641.1256)" class="st2 st3">input</text>
<line class="st1" x1="949.6" y1="752.7" x2="949.6" y2="444.5"/>
<path class="st0" d="M1173.4,101.9c9.9,0,17.9,8,17.9,17.9c0,6.6-3.6,12.4-9,15.5v5.4c0,1.7-1.3,3-3,3h-11.9c-1.6,0-3-1.3-3-3v-5.4
	c-5.3-3.1-9-8.9-9-15.5C1155.5,110,1163.5,101.9,1173.4,101.9 M1179.4,146.7v3c0,1.7-1.3,3-3,3h-6c-1.6,0-3-1.3-3-3v-3H1179.4
	 M1197.3,116.9h9v6h-9V116.9 M1140.5,116.9h9v6h-9V116.9 M1176.4,87v9h-6v-9H1176.4 M1152.2,94.5l6.4,6.4l-4.2,4.2l-6.4-6.3
	L1152.2,94.5 M1188.2,100.8l6.3-6.4l4.3,4.3l-6.4,6.3L1188.2,100.8z"/>
<path class="st0" d="M1186.7,325.6l-5.7-5.7c1.9-2,3.1-4.7,3.1-7.6c0-2-0.6-3.8-1.5-5.4l5.8-5.9c2.4,3.2,3.8,7,3.8,11.3
	C1192.2,317.5,1190.1,322.2,1186.7,325.6 M1173.4,293.5c4.2,0,8.1,1.3,11.3,3.8l-5.9,5.8c-1.5-0.9-3.4-1.5-5.4-1.5
	c-5.9,0-10.8,4.8-10.8,10.8c0,3,1.2,5.6,3.1,7.6l-5.7,5.7c-3.4-3.4-5.5-8.1-5.5-13.3C1154.6,301.9,1163,293.5,1173.4,293.5
	 M1173.4,285.4c-14.8,0-26.9,12-26.9,26.9s12,26.9,26.9,26.9s26.9-12,26.9-26.9S1188.2,285.4,1173.4,285.4z"/>
<path class="st0" d="M1185.4,581.5h-24.1V544h24.1 M1173.4,592.2c-2.2,0-4-1.8-4-4s1.8-4,4-4s4,1.8,4,4S1175.6,592.2,1173.4,592.2
	 M1184.1,536h-21.4c-3.7,0-6.7,3-6.7,6.7v45.6c0,3.7,3,6.7,6.7,6.7h21.4c3.7,0,6.7-3,6.7-6.7v-45.6
	C1190.8,539,1187.8,536,1184.1,536z"/>
<text transform="matrix(1 0 0 1 1130.1891 187.7389)" class="st2 st3">dimmer</text>
<text transform="matrix(1 0 0 1 1143.0787 219.2135)" class="st2 st3">lights</text>
<text transform="matrix(1 0 0 1 1133.1383 381.899)" class="st2 st3">ecobee</text>
<text transform="matrix(1 0 0 1 1112.5787 413.3746)" class="st2 st3">thermostat</text>
<text transform="matrix(1 0 0 1 1135.0582 636.796)" class="st2 st3">mobile</text>
<text transform="matrix(1 0 0 1 1149.7037 668.2706)" class="st2 st3">web</text>
<text transform="matrix(1 0 0 1 1136.5104 819.007)" class="st2 st3">aeotec</text>
<text transform="matrix(1 0 0 1 1139.1217 850.4835)" class="st2 st3">z-stick</text>
<path class="st0" d="M1173.4,716.8c-9.1,0-17.3,3.7-23.2,9.6l4.2,4.2c4.9-4.9,11.6-7.9,19-7.9c7.5,0,14.2,3,19,7.9l4.2-4.2
	C1190.7,720.5,1182.5,716.8,1173.4,716.8 M1158.6,734.9l4.2,4.2c2.7-2.7,6.5-4.4,10.6-4.4s7.9,1.7,10.6,4.4l4.2-4.2
	c-3.8-3.8-9-6.1-14.8-6.1S1162.4,731.1,1158.6,734.9 M1173.4,761.6c-3.3,0-6-2.7-6-6s2.7-6,6-6s6,2.7,6,6S1176.7,761.6,1173.4,761.6
	 M1182.4,743.7h-17.9c-1.7,0-3,1.3-3,3v35.8c0,1.7,1.3,3,3,3h17.9c1.7,0,3-1.3,3-3v-35.8C1185.3,745,1184,743.7,1182.4,743.7z"/>
<path class="st0" d="M1449.4,586.2l-5.7-5.7c1.9-2,3.1-4.7,3.1-7.6c0-2-0.6-3.8-1.5-5.4l5.8-5.9c2.4,3.2,3.8,7,3.8,11.3
	C1454.9,578.1,1452.8,582.8,1449.4,586.2 M1436.1,554.1c4.2,0,8.1,1.3,11.3,3.8l-5.9,5.8c-1.5-0.9-3.4-1.5-5.4-1.5
	c-5.9,0-10.8,4.8-10.8,10.8c0,3,1.2,5.6,3.1,7.6l-5.7,5.7c-3.4-3.4-5.5-8.1-5.5-13.3C1417.3,562.5,1425.7,554.1,1436.1,554.1
	 M1436.1,546c-14.8,0-26.9,12-26.9,26.9s12,26.9,26.9,26.9s26.9-12,26.9-26.9S1450.9,546,1436.1,546z"/>
<text transform="matrix(1 0 0 1 1395.8317 636.796)" class="st2 st3">ecobee</text>
<text transform="matrix(1 0 0 1 1375.2662 668.2667)" class="st2 st3">thermostat</text>
<path class="st0" d="M1331.7,330h-47.8v-35.8h47.8 M1331.7,288.1h-47.8c-3.3,0-6,2.7-6,6V330c0,3.3,2.7,6,6,6h11.9v6h23.9v-6h11.9
	c3.3,0,6-2.7,6-6v-35.8C1337.6,290.8,1335,288.1,1331.7,288.1z"/>
<text transform="matrix(1 0 0 1 1258.2474 381.899)" class="st2 st3">harmony</text>
<text transform="matrix(1 0 0 1 1285.7621 413.3746)" class="st2 st3">hub</text>
<text transform="matrix(1 0 0 1 1525.3844 636.796)" class="st2 st3">alarm</text>
<path class="st0" d="M1553.7,571.1h5.3v7.9h7.9v-13.1h5.3l-15.7-13.1l-15.7,13.1h5.3V579h7.9L1553.7,571.1 M1556.3,539.6l23.6,10.5
	v15.7c0,14.6-10.1,28.2-23.6,31.5c-13.5-3.3-23.6-16.9-23.6-31.5v-15.7L1556.3,539.6z"/>
<text transform="matrix(1 0 0 1 1630.3688 636.796)" class="st2 st3">dark</text>
<text transform="matrix(1 0 0 1 1637.0065 668.2706)" class="st2 st3">sky</text>
<path class="st0" d="M1655.6,588.2c-8.7,0-15.8-7.1-15.8-15.8s7.1-15.8,15.8-15.8c8.7,0,15.8,7.1,15.8,15.8
	S1664.3,588.2,1655.6,588.2 M1676.7,581.1l8.7-8.7l-8.7-8.7v-12.4h-12.4l-8.7-8.7l-8.7,8.7h-12.4v12.4l-8.7,8.7l8.7,8.7v12.4h12.4
	l8.7,8.7l8.7-8.7h12.4V581.1z"/>
<path class="st0" d="M609.1,104.9l6,11.9h-9l-6-11.9h-6l6,11.9h-9l-6-11.9h-6l6,11.9h-9l-6-11.9h-3c-3.3,0-6,2.7-6,6v35.8
	c0,3.3,2.7,6,6,6h47.8c3.3,0,6-2.7,6-6v-41.8C620.9,104.9,609.1,104.9,609.1,104.9z"/>
<path class="st0" d="M592.7,741.2c-12.4,0-22.4,10-22.4,22.4s10,22.4,22.4,22.4s22.4-10,22.4-22.4
	C615.1,751.2,605,741.2,592.7,741.2 M576.2,756.1h6c1.6,0,3,1.3,3,3v3c0,1.5-1.1,2.7-2.6,2.9l3.5,6.1h-3.5l-3.4-6v6h-3 M591.2,756.1
	h6v3h-6v3h6v3h-6v3h6v3h-6c-1.6,0-3-1.3-3-3v-9C588.2,757.5,589.5,756.1,591.2,756.1 M603.1,756.1h6v3h-6v9h6v3h-6c-1.7,0-3-1.3-3-3
	v-9C600.1,757.5,601.5,756.1,603.1,756.1 M579.2,759.1v3h3v-3"/>
</svg>
